<?xml version="1.0" encoding="iso-8859-1"?>
<!-- Generator: Adobe Illustrator 19.0.0, SVG Export Plug-In . SVG Version: 6.00 Build 0)  -->
<svg version="1.1" id="Layer_1" xmlns="http://www.w3.org/2000/svg" xmlns:xlink="http://www.w3.org/1999/xlink" x="0px" y="0px"
	 viewBox="0 0 512.853 512.853" style="enable-background:new 0 0 512.853 512.853;" xml:space="preserve">
<g>
	<g>
		<circle cx="256" cy="414.293" r="17.067"/>
	</g>
</g>
<g>
	<g>
		<path d="M503.467,47.36H460.8V32.853c0-11.093-8.533-19.627-19.627-19.627h-11.947c-11.093,0-19.627,8.533-19.627,19.627V47.36
			h-42.667c-5.12,0-8.533,3.413-8.533,8.533s3.413,8.533,8.533,8.533H409.6v14.507c0,10.24,7.68,17.92,17.067,19.627v27.307
			c-10.24,3.413-17.067,12.8-17.067,23.893v29.867l-51.2,38.4v-7.68c0-10.24-7.68-17.92-17.92-17.92H281.6V149.76
			c0-5.12-3.413-8.533-8.533-8.533c-5.12,0-8.533,3.413-8.533,8.533v42.667h-17.067v-25.6c0-5.12-3.413-8.533-8.533-8.533
			s-8.533,3.413-8.533,8.533v25.6h-58.88c-10.24,0-17.92,7.68-17.92,17.92v7.68l-51.2-38.4V149.76
			c0-11.093-6.827-20.48-17.067-23.893V98.56c9.387-0.853,17.067-9.387,17.067-19.627V64.427h42.667c5.12,0,8.533-3.413,8.533-8.533
			s-3.413-8.533-8.533-8.533H102.4V32.853c0-11.093-8.533-19.627-19.627-19.627H70.827c-11.093,0-19.627,8.533-19.627,19.627V47.36
			H8.533C3.413,47.36,0,50.773,0,55.893s3.413,8.533,8.533,8.533H51.2v14.507c0,10.24,7.68,17.92,17.067,19.627v27.307
			c-10.24,3.413-17.067,12.8-17.067,23.893v136.533c0,14.507,11.093,25.6,25.6,25.6s25.6-11.093,25.6-25.6v-32.427l43.52,37.547
			c-31.573,20.48-65.707,90.453-69.12,148.48H128c4.267-63.147,55.467-110.933,76.8-110.933h17.067v17.067h-18.773
			c-8.533,0-15.36,6.827-15.36,15.36v106.667c0,8.533,6.827,15.36,15.36,15.36H309.76c8.533,0,15.36-6.827,15.36-15.36V361.387
			c0-8.533-6.827-15.36-15.36-15.36h-19.627V328.96H307.2c21.333,0,71.68,47.787,76.8,110.933h51.2
			c-3.413-58.027-36.693-128-68.267-148.48l43.52-37.547v32.427c0,14.507,11.093,25.6,25.6,25.6s25.6-11.093,25.6-25.6V149.76
			c0-11.093-6.827-20.48-17.067-23.893V98.56c9.387-0.853,17.067-9.387,17.067-19.627V64.427h42.667c5.12,0,8.533-3.413,8.533-8.533
			C512,50.773,508.587,47.36,503.467,47.36z M68.267,32.853c0-1.707,0.853-2.56,2.56-2.56h11.947c1.707,0,2.56,0.853,2.56,2.56
			V47.36H68.267V32.853z M82.773,81.493H70.827c-1.707,0-2.56-0.853-2.56-2.56V64.427h17.067v14.507
			C85.333,80.64,84.48,81.493,82.773,81.493z M153.6,276.053l-51.2-44.373v-30.72l51.2,38.4V276.053z M221.867,235.093h68.267
			c5.12,0,8.533,3.413,8.533,8.533s-3.413,8.533-8.533,8.533h-68.267c-5.12,0-8.533-3.413-8.533-8.533
			S216.747,235.093,221.867,235.093z M256,448.427c-18.773,0-34.133-15.36-34.133-34.133c0-18.773,15.36-34.133,34.133-34.133
			c18.773,0,34.133,15.36,34.133,34.133C290.133,433.067,274.773,448.427,256,448.427z M238.933,346.027V328.96h34.133v17.067
			H238.933z M315.733,286.293H196.267c-5.12,0-8.533-3.413-8.533-8.533s3.413-8.533,8.533-8.533h119.467
			c5.12,0,8.533,3.413,8.533,8.533S320.853,286.293,315.733,286.293z M409.6,230.827L358.4,275.2v-36.693l51.2-38.4V230.827z
			 M443.733,78.933c0,1.707-0.853,2.56-2.56,2.56h-11.947c-1.707,0-2.56-0.853-2.56-2.56V64.427h17.067V78.933z M443.733,47.36
			h-17.067V32.853c0-1.707,0.853-2.56,2.56-2.56h11.947c1.707,0,2.56,0.853,2.56,2.56V47.36z"/>
	</g>
</g>
<g>
	<g>
		<path d="M384,456.96V480c0,11.093,8.533,19.627,19.627,19.627h11.947c11.093,0,19.627-8.533,19.627-19.627v-23.04H384z"/>
	</g>
</g>
<g>
	<g>
		<path d="M76.8,456.96V480c0,11.093,8.533,19.627,19.627,19.627h11.947c11.093,0,19.627-8.533,19.627-19.627v-23.04H76.8z"/>
	</g>
</g>
<g>
</g>
<g>
</g>
<g>
</g>
<g>
</g>
<g>
</g>
<g>
</g>
<g>
</g>
<g>
</g>
<g>
</g>
<g>
</g>
<g>
</g>
<g>
</g>
<g>
</g>
<g>
</g>
<g>
</g>
</svg>
