<?xml version="1.0" encoding="iso-8859-1"?>
<!-- Generator: Adobe Illustrator 18.1.1, SVG Export Plug-In . SVG Version: 6.00 Build 0)  -->
<svg version="1.1" id="Capa_1" xmlns="http://www.w3.org/2000/svg" xmlns:xlink="http://www.w3.org/1999/xlink" x="0px" y="0px"
	 viewBox="0 0 612.002 612.002" style="enable-background:new 0 0 612.002 612.002;" xml:space="preserve">
<g>
	<path id="Gamepad" d="M609.941,360.293c-12.206-73.867-76.078-128.049-150.947-128.049c-48.916,0-97.833,0-146.748,0v-99.289
		c0-10.33,8.404-18.733,18.733-18.733c10.329,0,18.733,8.404,18.733,18.733v24.978c0,17.216,14.006,31.223,31.223,31.223
		c17.217,0,31.223-14.006,31.223-31.223V85.495c0-3.448-2.796-6.245-6.245-6.245c-3.448,0-6.245,2.795-6.245,6.245v72.437
		c0,10.33-8.404,18.733-18.735,18.733c-10.33,0-18.733-8.404-18.733-18.733v-24.978c0-17.217-14.006-31.223-31.223-31.223
		c-17.215,0-31.222,14.006-31.222,31.223v99.289c-48.916,0-97.833,0-146.749,0c-74.869,0-138.74,54.182-150.947,128.049
		S32.9,506.009,103.788,530.095c17.056,5.795,35.912,1.958,49.348-10.041c87.074-77.764,218.654-77.764,305.728,0
		c13.435,11.999,32.291,15.836,49.347,10.041C579.102,506.011,622.147,434.16,609.941,360.293z M163.936,401.784
		c-11.032,0-22.064,0-33.097,0c0,11.032,0,22.064,0,33.097c0,9.14-7.409,16.548-16.548,16.548c-9.14,0-16.549-7.409-16.549-16.548
		c0-11.032,0-22.064,0-33.097c-11.032,0-22.064,0-33.097,0c-9.14,0-16.548-7.409-16.548-16.548s7.409-16.548,16.548-16.548
		c11.032,0,22.064,0,33.097,0c0-11.032,0-22.064,0-33.097c0-9.139,7.409-16.548,16.549-16.548c9.139,0,16.548,7.409,16.548,16.548
		c0,11.032,0,22.064,0,33.097c11.032,0,22.064,0,33.097,0c9.14,0,16.549,7.409,16.549,16.548S173.076,401.784,163.936,401.784z
		 M448.067,401.784c-9.139,0-16.548-7.409-16.548-16.548s7.409-16.548,16.548-16.548c9.14,0,16.549,7.409,16.549,16.548
		C464.614,394.375,457.205,401.784,448.067,401.784z M497.711,451.429c-9.14,0-16.549-7.409-16.549-16.548
		s7.409-16.548,16.549-16.548c9.139,0,16.548,7.409,16.548,16.548S506.85,451.429,497.711,451.429z M497.711,352.14
		c-9.14,0-16.549-7.409-16.549-16.548s7.409-16.548,16.549-16.548c9.139,0,16.548,7.409,16.548,16.548S506.85,352.14,497.711,352.14
		z M547.356,401.784c-9.14,0-16.548-7.409-16.548-16.548s7.409-16.548,16.548-16.548s16.549,7.409,16.549,16.548
		S556.496,401.784,547.356,401.784z"/>
</g>
<g>
</g>
<g>
</g>
<g>
</g>
<g>
</g>
<g>
</g>
<g>
</g>
<g>
</g>
<g>
</g>
<g>
</g>
<g>
</g>
<g>
</g>
<g>
</g>
<g>
</g>
<g>
</g>
<g>
</g>
</svg>
